<?xml version="1.0" encoding="UTF-8"?>
<svg version="1.1" xmlns="http://www.w3.org/2000/svg" width="500" height="148">
<path d="M0 0 C2.375 1.5 2.375 1.5 4 4 C4.495 7.96 4.495 7.96 5 12 C12.59 12 20.18 12 28 12 C28 10.02 28 8.04 28 6 C30.26470588 1.36764706 30.26470588 1.36764706 33 0 C39.13636364 -0.56818182 39.13636364 -0.56818182 42.375 1.5625 C44.4523486 4.6785229 44.71574109 7.30463414 45 11 C46.175625 11.061875 47.35125 11.12375 48.5625 11.1875 C53.22861216 11.79144714 56.85395578 13.44775766 60 17 C62.49964379 22.00279697 63.37095614 25.59696559 63.328125 31.27709961 C63.32684097 31.96752853 63.32555695 32.65795746 63.32423401 33.36930847 C63.31541915 35.63075269 63.28389929 37.89114619 63.25 40.15234375 C63.23463079 41.73742577 63.21991176 43.32251422 63.20581055 44.90760803 C63.17239244 48.22208029 63.12694258 51.53613073 63.07373047 54.8503418 C63.0073549 59.08119976 62.97735536 63.3114331 62.95724487 67.54273129 C62.93653633 70.81427295 62.89313705 74.08523005 62.84338379 77.35644722 C62.82296692 78.91555214 62.81022003 80.47477836 62.80554199 82.03400993 C62.7407144 97.23752913 62.7407144 97.23752913 58.55761719 102.52772522 C51.51086296 109.18838524 43.3100793 108.59221322 34.0625 108.53125 C32.61335999 108.53394983 31.16422175 108.53783632 29.71508789 108.54284668 C26.68911361 108.5487188 23.66361407 108.54025369 20.63769531 108.52148438 C16.77759504 108.49869532 12.91860752 108.51183086 9.05854797 108.53577423 C6.06945558 108.55029485 3.08062284 108.54559784 0.09152222 108.53526306 C-1.33090347 108.532613 -2.75335348 108.53580434 -4.17575073 108.54518127 C-12.17264502 108.58634254 -18.22343518 108.46693368 -25 104 C-30.01343019 98.85463744 -31.24656289 94.11238737 -31.29052734 87.04174805 C-31.29724457 86.36136475 -31.30396179 85.68098145 -31.31088257 84.97998047 C-31.32981148 82.74048468 -31.3337843 80.50128947 -31.3359375 78.26171875 C-31.34236963 76.6961912 -31.3490983 75.13066484 -31.35610962 73.56513977 C-31.36807007 70.28599259 -31.37179178 67.00695065 -31.37060547 63.7277832 C-31.3704025 59.54148882 -31.397687 55.35587496 -31.43214989 51.16974163 C-31.45447272 47.93621265 -31.45844135 44.70284594 -31.45738602 41.46924782 C-31.45973456 39.92678295 -31.46851576 38.38431309 -31.48405075 36.84192467 C-31.62094812 21.84455822 -31.62094812 21.84455822 -27 15 C-23.73017412 11.92251682 -21.01172427 11.84299523 -16.6875 11.8125 C-15.12448483 11.86041725 -13.56160485 11.91812945 -12 12 C-11.83564453 10.95199219 -11.83564453 10.95199219 -11.66796875 9.8828125 C-11.50941406 8.97273437 -11.35085937 8.06265625 -11.1875 7.125 C-11.03667969 6.22007813 -10.88585937 5.31515625 -10.73046875 4.3828125 C-9.10977054 -0.90395705 -4.71963807 -0.49680401 0 0 Z M-6.6640625 4 C-8.74932903 7.12180252 -8.43302263 10.37680938 -8.375 14 C-8.38660156 14.72445313 -8.39820312 15.44890625 -8.41015625 16.1953125 C-8.39329381 19.2417925 -8.37518411 21.44477064 -6.640625 24.01171875 C-4.94269068 25.24906597 -4.94269068 25.24906597 -2.375 24.8125 C0.16552003 24.25355766 0.16552003 24.25355766 1 22 C1.15051566 19.33992519 1.23127734 16.72345815 1.25 14.0625 C1.270625 13.33353516 1.29125 12.60457031 1.3125 11.85351562 C1.36106794 7.69473662 1.36106794 7.69473662 -0.328125 3.99609375 C-2.69835798 2.58392223 -4.29760863 2.57790565 -6.6640625 4 Z M32 5 C31.53737469 6.89425173 31.53737469 6.89425173 31.6015625 9.0625 C31.59769531 9.85914063 31.59382813 10.65578125 31.58984375 11.4765625 C31.60144531 12.30929688 31.61304688 13.14203125 31.625 14 C31.61339844 14.83273438 31.60179687 15.66546875 31.58984375 16.5234375 C31.59371094 17.32007813 31.59757812 18.11671875 31.6015625 18.9375 C31.60494629 19.66839844 31.60833008 20.39929688 31.61181641 21.15234375 C31.86173646 23.41354123 31.86173646 23.41354123 35 25 C37.61915122 24.84298574 37.61915122 24.84298574 40 24 C41.57255046 20.85489907 41.22572668 17.51234555 41.25 14.0625 C41.270625 13.33353516 41.29125 12.60457031 41.3125 11.85351562 C41.36106794 7.69473662 41.36106794 7.69473662 39.671875 3.99609375 C36.42732727 2.06301041 35.0144424 2.99037173 32 5 Z M-27 37 C-27.89221053 40.07030129 -28.13624734 42.83192168 -28.16113281 46.0246582 C-28.17074036 47.02282059 -28.1803479 48.02098297 -28.19024658 49.0493927 C-28.19449646 50.12235092 -28.19874634 51.19530914 -28.203125 52.30078125 C-28.20882507 53.41051804 -28.21452515 54.52025482 -28.22039795 55.66362 C-28.22984071 58.01133269 -28.23637906 60.35905859 -28.24023438 62.70678711 C-28.24993496 66.28848532 -28.28096391 69.86960841 -28.3125 73.45117188 C-28.3190309 75.7343716 -28.32428103 78.01757542 -28.328125 80.30078125 C-28.3404718 81.36766678 -28.3528186 82.43455231 -28.36553955 83.5337677 C-28.34449304 90.60013407 -27.65641603 95.61077955 -23.1875 101.3125 C-18.7711243 104.71941839 -14.07762724 105.25158765 -8.63085938 105.2746582 C-6.76862732 105.28895622 -6.76862732 105.28895622 -4.86877441 105.30354309 C-3.52709932 105.30328166 -2.18542421 105.30234461 -0.84375 105.30078125 C0.54577766 105.30467302 1.93530414 105.30900868 3.3248291 105.31376648 C6.22977566 105.32120674 9.13460062 105.32095295 12.03955078 105.31567383 C15.75174231 105.30987496 19.46343557 105.32683036 23.17554474 105.3500185 C26.04269288 105.36478764 28.9097218 105.36562337 31.77690125 105.36250877 C33.14516692 105.36302016 34.51343958 105.36822343 35.88166809 105.37832069 C37.79802604 105.3907314 39.71448535 105.38192928 41.63085938 105.37231445 C43.26251038 105.37325859 43.26251038 105.37325859 44.92712402 105.3742218 C49.7734738 104.78402234 53.0139417 103.06600898 56.3125 99.5 C58.85377223 95.73515225 59.12349157 92.95374816 59.11352539 88.51879883 C59.11344986 87.39786331 59.11337433 86.2769278 59.11329651 85.12202454 C59.10813522 83.91257675 59.10297394 82.70312897 59.09765625 81.45703125 C59.0962413 80.21829758 59.09482635 78.9795639 59.09336853 77.70329285 C59.08871602 74.41368463 59.0797339 71.1241254 59.06866455 67.83453369 C59.05842629 64.47628377 59.05386574 61.11802667 59.04882812 57.75976562 C59.03779145 51.17315788 59.02104767 44.58658295 59 38 C55.86002332 36.43001166 52.50823639 36.87055455 49.06201172 36.88647461 C48.24241974 36.88632858 47.42282776 36.88618256 46.57839966 36.8860321 C43.8621356 36.88673026 41.14593962 36.89451812 38.4296875 36.90234375 C36.54924558 36.90420827 34.66880317 36.90563202 32.7883606 36.90663147 C27.83338078 36.91045393 22.87843017 36.92028192 17.92346191 36.93133545 C12.86955155 36.94155539 7.81563647 36.94613034 2.76171875 36.95117188 C-7.15886701 36.96190441 -17.07943108 36.9789776 -27 37 Z " fill="#5D7266" transform="translate(33,6)"/>
<path d="M0 0 C7.18565717 5.60078325 12.07736226 13.05412209 14 22 C14.239852 25.05956669 14.23098787 28.11941717 14.25 31.1875 C14.270625 32.00025391 14.29125 32.81300781 14.3125 33.65039062 C14.37463122 43.41275813 11.24494013 51.49759455 5 59 C-1.37125193 65.16963003 -8.55845882 68.04871938 -17.375 68.4375 C-23.39220649 68.2928147 -28.5245815 66.37232833 -34 64 C-35.77490546 65.77490546 -35.23499973 68.37784902 -35.31640625 70.78515625 C-35.35830078 71.95498047 -35.40019531 73.12480469 -35.44335938 74.33007812 C-35.50233398 76.17762695 -35.50233398 76.17762695 -35.5625 78.0625 C-35.60568359 79.29806641 -35.64886719 80.53363281 -35.69335938 81.80664062 C-35.79984198 84.87097335 -35.90185424 87.93539073 -36 91 C-39.63 91 -43.26 91 -47 91 C-47 60.64 -47 30.28 -47 -1 C-43.7 -1.33 -40.4 -1.66 -37 -2 C-35.92474806 0.65228812 -34.90543849 3.28368454 -34 6 C-33.49210938 5.51789062 -32.98421875 5.03578125 -32.4609375 4.5390625 C-23.6670566 -3.53022896 -10.87812204 -6.74488986 0 0 Z M-32.25 9.25 C-35.90068717 14.98679412 -36.30484537 21.39009227 -36.265625 28.04296875 C-36.26753845 28.77445633 -36.2694519 29.50594391 -36.27142334 30.25959778 C-36.27277345 31.79147693 -36.26915987 33.32336799 -36.26074219 34.85522461 C-36.24997856 37.19215558 -36.26070097 39.52832614 -36.2734375 41.86523438 C-36.2721166 43.36198085 -36.26955566 44.85872685 -36.265625 46.35546875 C-36.26967346 47.04827438 -36.27372192 47.74108002 -36.27789307 48.45487976 C-36.23994778 52.39430933 -35.90792216 55.52216411 -34 59 C-28.32346603 62.92990813 -23.56562524 64.5696169 -16.625 63.5 C-10.28651223 61.87803006 -6.09580738 58.07987938 -2.4609375 52.73828125 C2.75257526 43.27163967 4.13371956 32.56036566 2 22 C-0.19046235 14.50688373 -3.17366099 8.73309929 -9.625 4.125 C-18.75989984 1.08003339 -25.46133245 2.46133245 -32.25 9.25 Z " fill="#3F5545" transform="translate(231,40)"/>
<path d="M0 0 C7.02619048 3.82880361 10.88517536 9.42931598 13.30044556 16.88166809 C14.42771277 21.51480384 14.32418578 26.09908461 14.265625 30.84375 C14.26375183 31.89405396 14.26187866 32.94435791 14.25994873 34.02648926 C14.25326663 36.22830417 14.23942957 38.430108 14.21875 40.63183594 C14.18733588 44.01768911 14.17774835 47.4030774 14.171875 50.7890625 C14.16271451 52.9322974 14.1523418 55.07552755 14.140625 57.21875 C14.13637512 58.23529663 14.13212524 59.25184326 14.12774658 60.29919434 C14.11813904 61.23106567 14.10853149 62.16293701 14.09863281 63.12304688 C14.09180481 63.94639526 14.08497681 64.76974365 14.07794189 65.61804199 C13.9375 67.5 13.9375 67.5 12.9375 68.5 C11.27320949 68.59823937 9.60468069 68.62973631 7.9375 68.625 C6.57625 68.62886719 6.57625 68.62886719 5.1875 68.6328125 C2.9375 68.5 2.9375 68.5 1.9375 67.5 C1.56989269 65.17182036 1.23508419 62.8381615 0.9375 60.5 C0.53660156 60.89832031 0.13570313 61.29664063 -0.27734375 61.70703125 C-6.20512537 67.23156242 -12.01549532 69.57649063 -20.125 69.875 C-25.73208179 69.65767125 -30.52147221 68.73610445 -34.8203125 64.953125 C-38.54740041 60.88393723 -41.01804661 57.01816834 -41.08984375 51.3359375 C-40.63853454 44.41586293 -37.96408167 40.14861331 -33 35.375 C-25.7052897 29.48075096 -16.48219414 27.98160538 -7.45727539 26.53833008 C-4.02440058 25.97313853 -2.0091128 25.46440853 0.9375 23.5 C2.19769998 18.02778027 0.86760993 12.93482762 -1.87890625 8.1640625 C-3.7287655 5.56327028 -5.02091155 4.55794381 -8.0625 3.5 C-13.83923933 2.71180931 -19.08783973 3.07915261 -24.234375 5.9453125 C-27.87236174 9.03915593 -29.9399114 13.28698323 -32.0625 17.5 C-34 17.1875 -34 17.1875 -36.0625 16.5 C-37.0625 13.5 -37.0625 13.5 -35.625 10.1875 C-32.99600647 5.86385908 -29.2939805 3.16946915 -25.0625 0.5 C-24.47855469 0.12230469 -23.89460938 -0.25539062 -23.29296875 -0.64453125 C-16.72633612 -3.16308212 -6.51730218 -2.5482877 0 0 Z M-9.875 31.25 C-10.66970703 31.50265625 -11.46441406 31.7553125 -12.28320312 32.015625 C-18.28511509 34.00136924 -23.11888721 36.35179639 -27.4375 41.125 C-29.59909091 45.61445804 -29.75921833 49.59056616 -29.0625 54.5 C-27.63678297 58.19087492 -25.73048383 59.8689981 -22.19140625 61.73828125 C-16.96071803 63.6098119 -11.81793244 63.15016016 -6.6875 61.25 C-1.69648731 57.92265821 0.45212083 55.35756046 1.9375 49.5 C2.17135929 45.87048938 2.12653192 42.26004261 2.0625 38.625 C2.05347656 37.65046875 2.04445313 36.6759375 2.03515625 35.671875 C2.01171623 33.28099272 1.97890442 30.89062739 1.9375 28.5 C-2.30591121 28.5 -5.87376188 29.91945239 -9.875 31.25 Z " fill="#435949" transform="translate(357.0625,38.5)"/>
<path d="M0 0 C4.47931946 2.95444475 8.04449821 6.65397979 9.6484375 11.8359375 C9.98653831 17.92175212 7.97007665 23.14060406 4.2734375 27.9609375 C-4.90009073 37.62550617 -20.48150931 39.79862645 -33.1640625 41.2109375 C-29.19658286 49.90562693 -25.61811717 55.78326247 -16.48828125 59.48046875 C-10.03687053 61.50805498 -5.13206167 60.27194226 0.85546875 57.35546875 C4.52678253 55.23378248 6.51255103 52.69601721 8.8359375 49.2109375 C9.8259375 49.5409375 10.8159375 49.8709375 11.8359375 50.2109375 C11.38531314 55.16780551 9.32194248 58.75648008 5.8359375 62.2109375 C-3.28608995 67.96755676 -11.47452728 69.02504118 -22.1640625 68.2109375 C-30.19372196 66.31805982 -37.26363829 60.59333029 -41.76953125 53.78515625 C-47.35456893 43.25383886 -48.71228998 32.9633525 -45.4140625 21.5234375 C-42.94725375 14.08838938 -39.88170061 9.6353634 -34.1640625 4.2109375 C-33.47957031 3.46457031 -33.47957031 3.46457031 -32.78125 2.703125 C-24.3996124 -5.03065655 -9.66290151 -5.06494094 0 0 Z M-25.14453125 4.8828125 C-33.15708355 13.42497913 -35.26230563 22.63117008 -35.296875 34.0390625 C-35.30349973 36.25855184 -35.30349973 36.25855184 -34.1640625 38.2109375 C-23.97264051 36.49226574 -12.4873726 34.31180546 -5.1015625 26.3984375 C-1.68722686 20.78130468 0.494887 15.97147482 -0.7890625 9.3359375 C-1.58505159 6.11737291 -2.55016559 4.28739766 -5.1640625 2.2109375 C-12.26956883 -0.84243269 -19.19658779 -0.13833109 -25.14453125 4.8828125 Z " fill="#3A5342" transform="translate(298.1640625,39.7890625)"/>
<path d="M0 0 C4.80257319 3.38557635 8.99505152 7.43186755 10.09765625 13.390625 C10.27232066 18.97988611 8.79527885 23.19778219 5.22265625 27.49609375 C-4.79251328 37.30875066 -18.79412588 39.55380344 -32.02734375 42.390625 C-28.47286323 51.03758243 -24.49588022 55.65635676 -16.15234375 59.828125 C-9.29924825 61.06168219 -2.88668925 59.9963707 3.2109375 56.64453125 C6.06488764 54.61322749 7.91818212 52.21552692 9.97265625 49.390625 C10.96265625 49.720625 11.95265625 50.050625 12.97265625 50.390625 C11.42051397 56.31698642 8.8671601 60.46784744 3.78515625 63.84375 C-4.92827437 68.83104253 -14.0252714 70.10846675 -23.95703125 67.671875 C-33.75153938 63.98032786 -39.36030676 57.49121723 -44.0703125 48.37109375 C-47.62795669 39.63565756 -47.34814494 28.24035411 -44.40234375 19.390625 C-40.41355443 10.10661362 -33.68941911 2.12471886 -24.171875 -1.78125 C-16.32112379 -3.84877703 -7.2803944 -3.86473273 0 0 Z M-25.0078125 4.9921875 C-32.15937495 12.40297503 -34.95652936 22.24646425 -35.02734375 32.390625 C-34.68135337 35.82730932 -34.68135337 35.82730932 -34.02734375 38.390625 C-21.61990795 37.77025321 -11.1531426 32.66956882 -2.52734375 23.828125 C-0.21995353 18.54035574 -0.06191474 13.06252041 -1.02734375 7.390625 C-2.79161621 4.59037798 -4.10434262 2.85653762 -7.0703125 1.359375 C-13.93359142 -0.14079526 -19.42223038 0.47524732 -25.0078125 4.9921875 Z " fill="#3C5745" transform="translate(480.02734375,39.609375)"/>
<path d="M0 0 C1.87444526 1.87444526 1.26079845 4.86611418 1.3125 7.375 C1.19780471 18.67248593 -2.38672741 26.7292175 -10 35 C-16.71195192 41.36774926 -25.73838511 45 -35 45 C-49.12735306 44.62276761 -49.12735306 44.62276761 -54 40 C-57.887221 35.37735881 -58.59718229 31.84085674 -59 26 C-54.96678179 24.38671272 -51.95345413 25.54346427 -48 27 C-44.15842235 29.53194891 -42.26786279 32.05730751 -40 36 C-39.8040625 35.04480469 -39.608125 34.08960938 -39.40625 33.10546875 C-36.9566964 22.15142899 -33.02025332 13.26262431 -23.5625 6.5 C-19.2678776 3.92174053 -14.82739392 2.28299762 -10 1 C-9.319375 0.81308594 -8.63875 0.62617187 -7.9375 0.43359375 C-5.2573084 -0.16620719 -2.73463558 -0.12153936 0 0 Z M-27 22 C-27 25 -27 25 -27 25 Z M-29 25 C-29.33 26.32 -29.66 27.64 -30 29 C-29.34 27.68 -28.68 26.36 -28 25 C-28.33 25 -28.66 25 -29 25 Z M-31 29 C-30 31 -30 31 -30 31 Z M-32 31 C-31 33 -31 33 -31 33 Z M-33 33 C-32 37 -32 37 -32 37 Z " fill="#5A6F64" transform="translate(76,53)"/>
<path d="M0 0 C4.38224203 2.06695749 6.84340205 4.24005668 9.375 8.375 C9.6875 11.25 9.6875 11.25 9.375 13.375 C8.055 13.375 6.735 13.375 5.375 13.375 C3.953125 11.73046875 3.953125 11.73046875 2.625 9.5625 C0.00508253 5.86841637 -2.05613446 4.00237362 -6.41015625 2.70703125 C-11.80216466 1.89870547 -16.76340298 2.50118915 -21.6875 4.8125 C-23.90542616 6.60115013 -24.5258789 7.54790753 -24.86328125 10.36328125 C-24.98339122 14.12461984 -24.95411027 16.71677946 -23.25 20.125 C-18.48335058 24.2106995 -12.88060773 26.45373069 -7.10546875 28.8125 C7.87440081 34.93845305 7.87440081 34.93845305 12.3125 42.8125 C13.95376511 48.31556536 14.07046746 52.33159582 11.6875 57.5625 C8.13084327 63.92768911 3.14380148 66.32039802 -3.58984375 68.61328125 C-12.64062531 70.88471291 -21.57870109 69.84988443 -29.6640625 65.203125 C-32.88857397 63.05345069 -35.58300032 61.1956655 -36.625 57.375 C-36.75 54.125 -36.75 54.125 -36.625 51.375 C-35.14 50.88 -35.14 50.88 -33.625 50.375 C-32.78621545 51.66313342 -31.95413217 52.95563256 -31.125 54.25 C-30.6609375 54.96929687 -30.196875 55.68859375 -29.71875 56.4296875 C-28.625 58.375 -28.625 58.375 -28.625 60.375 C-27.903125 60.66375 -27.18125 60.9525 -26.4375 61.25 C-24.70653704 61.94238518 -22.98583918 62.66203549 -21.28515625 63.42578125 C-15.74287075 65.40342497 -9.14855287 65.25589427 -3.625 63.1875 C-0.26864383 61.15970148 1.03653515 60.05577833 2.375 56.375 C2.30760783 52.60103874 1.7498138 50.09055361 0 46.75 C-4.87242807 42.3416127 -11.13207283 40.32546243 -17.2109375 38.0078125 C-24.68199534 35.06080674 -30.2944225 32.35452181 -34.625 25.375 C-36.23871538 20.53385385 -36.60189633 15.18888617 -34.90625 10.3046875 C-27.9974123 -2.56580854 -12.84087848 -4.608063 0 0 Z " fill="#354F3C" transform="translate(415.625,38.625)"/>
<path d="M0 0 C2.375 1.5 2.375 1.5 4 4 C4.495 7.96 4.495 7.96 5 12 C12.59 12 20.18 12 28 12 C28 10.02 28 8.04 28 6 C30.26470588 1.36764706 30.26470588 1.36764706 33 0 C39.13636364 -0.56818182 39.13636364 -0.56818182 42.375 1.5625 C44.4523486 4.6785229 44.71574109 7.30463414 45 11 C46.175625 11.061875 47.35125 11.12375 48.5625 11.1875 C53.22861216 11.79144714 56.85395578 13.44775766 60 17 C62.49964379 22.00279697 63.37095614 25.59696559 63.328125 31.27709961 C63.32684097 31.96752853 63.32555695 32.65795746 63.32423401 33.36930847 C63.31541915 35.63075269 63.28389929 37.89114619 63.25 40.15234375 C63.23463079 41.73742577 63.21991176 43.32251422 63.20581055 44.90760803 C63.17239244 48.22208029 63.12694258 51.53613073 63.07373047 54.8503418 C63.0073549 59.08119976 62.97735536 63.3114331 62.95724487 67.54273129 C62.93653633 70.81427295 62.89313705 74.08523005 62.84338379 77.35644722 C62.82296692 78.91555214 62.81022003 80.47477836 62.80554199 82.03400993 C62.7407144 97.23752913 62.7407144 97.23752913 58.55761719 102.52772522 C51.51086296 109.18838524 43.3100793 108.59221322 34.0625 108.53125 C32.61335999 108.53394983 31.16422175 108.53783632 29.71508789 108.54284668 C26.68911361 108.5487188 23.66361407 108.54025369 20.63769531 108.52148438 C16.77759504 108.49869532 12.91860752 108.51183086 9.05854797 108.53577423 C6.06945558 108.55029485 3.08062284 108.54559784 0.09152222 108.53526306 C-1.33090347 108.532613 -2.75335348 108.53580434 -4.17575073 108.54518127 C-12.17264502 108.58634254 -18.22343518 108.46693368 -25 104 C-30.01343019 98.85463744 -31.24656289 94.11238737 -31.29052734 87.04174805 C-31.29724457 86.36136475 -31.30396179 85.68098145 -31.31088257 84.97998047 C-31.32981148 82.74048468 -31.3337843 80.50128947 -31.3359375 78.26171875 C-31.34236963 76.6961912 -31.3490983 75.13066484 -31.35610962 73.56513977 C-31.36807007 70.28599259 -31.37179178 67.00695065 -31.37060547 63.7277832 C-31.3704025 59.54148882 -31.397687 55.35587496 -31.43214989 51.16974163 C-31.45447272 47.93621265 -31.45844135 44.70284594 -31.45738602 41.46924782 C-31.45973456 39.92678295 -31.46851576 38.38431309 -31.48405075 36.84192467 C-31.62094812 21.84455822 -31.62094812 21.84455822 -27 15 C-23.73017412 11.92251682 -21.01172427 11.84299523 -16.6875 11.8125 C-15.12448483 11.86041725 -13.56160485 11.91812945 -12 12 C-11.83564453 10.95199219 -11.83564453 10.95199219 -11.66796875 9.8828125 C-11.50941406 8.97273437 -11.35085937 8.06265625 -11.1875 7.125 C-11.03667969 6.22007813 -10.88585937 5.31515625 -10.73046875 4.3828125 C-9.10977054 -0.90395705 -4.71963807 -0.49680401 0 0 Z M-6.625 4.125 C-8.47534669 6.64820003 -8.60827834 8.93151367 -9 12 C-9.33 12.66 -9.66 13.32 -10 14 C-11.21236328 13.93039063 -11.21236328 13.93039063 -12.44921875 13.859375 C-19.04179508 13.53750274 -19.04179508 13.53750274 -25.125 15.6875 C-28.61685619 19.99412263 -29.26162428 23.77828073 -29.1875 29.25 C-29.18105469 30.30703125 -29.17460937 31.3640625 -29.16796875 32.453125 C-29.28529306 34.93438718 -29.28529306 34.93438718 -28 36 C-25.23061034 36.09517803 -22.48622841 36.12554265 -19.71655273 36.11352539 C-18.84833893 36.11367142 -17.98012512 36.11381744 -17.08560181 36.1139679 C-14.20157414 36.11326846 -11.3176102 36.10547463 -8.43359375 36.09765625 C-6.43962133 36.09579218 -4.44564845 36.09436823 -2.45167542 36.09336853 C2.80745702 36.08954248 8.06656203 36.07971145 13.32568359 36.06866455 C18.68782175 36.0584523 24.04996431 36.05387131 29.41210938 36.04882812 C39.94141833 36.03808926 50.47070689 36.0210118 61 36 C61.04735877 33.90907263 61.08124255 31.81783691 61.109375 29.7265625 C61.12967773 28.56205566 61.14998047 27.39754883 61.17089844 26.19775391 C60.93435916 21.77176607 60.01344659 20.18086029 57 17 C53.9367134 14.28661467 51.81685306 13.58005612 47.75 13.3125 C46.85796875 13.24675781 45.9659375 13.18101563 45.046875 13.11328125 C44.37140625 13.07589844 43.6959375 13.03851563 43 13 C42.97421875 13.68707031 42.9484375 14.37414063 42.921875 15.08203125 C42.83679688 16.43361328 42.83679688 16.43361328 42.75 17.8125 C42.70359375 18.70582031 42.6571875 19.59914063 42.609375 20.51953125 C42 23 42 23 40.15625 24.84375 C37.15867018 26.45114787 35.21824046 25.80456012 32 25 C31.80083984 23.93458984 31.80083984 23.93458984 31.59765625 22.84765625 C31.42105469 21.92855469 31.24445313 21.00945313 31.0625 20.0625 C30.88847656 19.14597656 30.71445312 18.22945312 30.53515625 17.28515625 C30.22285012 15.04710156 30.22285012 15.04710156 29 14 C27.07521187 13.84193469 25.1450079 13.748865 23.21484375 13.68359375 C22.04501953 13.64169922 20.87519531 13.59980469 19.66992188 13.55664062 C17.82237305 13.49766602 17.82237305 13.49766602 15.9375 13.4375 C14.70193359 13.39431641 13.46636719 13.35113281 12.19335938 13.30664062 C9.12902665 13.20015802 6.06460927 13.09814576 3 13 C3 13.66 3 14.32 3 15 C2.34 15 1.68 15 1 15 C1.05220703 14.07767578 1.05220703 14.07767578 1.10546875 13.13671875 C1.13253906 12.32847656 1.15960938 11.52023438 1.1875 10.6875 C1.22230469 9.88699219 1.25710937 9.08648437 1.29296875 8.26171875 C1.17809474 5.93733586 1.17809474 5.93733586 -0.32421875 4.20703125 C-2.67441455 2.51423287 -4.23240048 2.46858495 -6.625 4.125 Z M32 5 C31.53737469 6.89425173 31.53737469 6.89425173 31.6015625 9.0625 C31.59769531 9.85914063 31.59382813 10.65578125 31.58984375 11.4765625 C31.60144531 12.30929688 31.61304688 13.14203125 31.625 14 C31.61339844 14.83273438 31.60179687 15.66546875 31.58984375 16.5234375 C31.59371094 17.32007813 31.59757812 18.11671875 31.6015625 18.9375 C31.60494629 19.66839844 31.60833008 20.39929688 31.61181641 21.15234375 C31.86173646 23.41354123 31.86173646 23.41354123 35 25 C37.61915122 24.84298574 37.61915122 24.84298574 40 24 C41.57255046 20.85489907 41.22572668 17.51234555 41.25 14.0625 C41.270625 13.33353516 41.29125 12.60457031 41.3125 11.85351562 C41.36106794 7.69473662 41.36106794 7.69473662 39.671875 3.99609375 C36.42732727 2.06301041 35.0144424 2.99037173 32 5 Z M-27 37 C-27.89221053 40.07030129 -28.13624734 42.83192168 -28.16113281 46.0246582 C-28.17074036 47.02282059 -28.1803479 48.02098297 -28.19024658 49.0493927 C-28.19449646 50.12235092 -28.19874634 51.19530914 -28.203125 52.30078125 C-28.20882507 53.41051804 -28.21452515 54.52025482 -28.22039795 55.66362 C-28.22984071 58.01133269 -28.23637906 60.35905859 -28.24023438 62.70678711 C-28.24993496 66.28848532 -28.28096391 69.86960841 -28.3125 73.45117188 C-28.3190309 75.7343716 -28.32428103 78.01757542 -28.328125 80.30078125 C-28.3404718 81.36766678 -28.3528186 82.43455231 -28.36553955 83.5337677 C-28.34449304 90.60013407 -27.65641603 95.61077955 -23.1875 101.3125 C-18.7711243 104.71941839 -14.07762724 105.25158765 -8.63085938 105.2746582 C-6.76862732 105.28895622 -6.76862732 105.28895622 -4.86877441 105.30354309 C-3.52709932 105.30328166 -2.18542421 105.30234461 -0.84375 105.30078125 C0.54577766 105.30467302 1.93530414 105.30900868 3.3248291 105.31376648 C6.22977566 105.32120674 9.13460062 105.32095295 12.03955078 105.31567383 C15.75174231 105.30987496 19.46343557 105.32683036 23.17554474 105.3500185 C26.04269288 105.36478764 28.9097218 105.36562337 31.77690125 105.36250877 C33.14516692 105.36302016 34.51343958 105.36822343 35.88166809 105.37832069 C37.79802604 105.3907314 39.71448535 105.38192928 41.63085938 105.37231445 C43.26251038 105.37325859 43.26251038 105.37325859 44.92712402 105.3742218 C49.7734738 104.78402234 53.0139417 103.06600898 56.3125 99.5 C58.85377223 95.73515225 59.12349157 92.95374816 59.11352539 88.51879883 C59.11344986 87.39786331 59.11337433 86.2769278 59.11329651 85.12202454 C59.10813522 83.91257675 59.10297394 82.70312897 59.09765625 81.45703125 C59.0962413 80.21829758 59.09482635 78.9795639 59.09336853 77.70329285 C59.08871602 74.41368463 59.0797339 71.1241254 59.06866455 67.83453369 C59.05842629 64.47628377 59.05386574 61.11802667 59.04882812 57.75976562 C59.03779145 51.17315788 59.02104767 44.58658295 59 38 C55.86002332 36.43001166 52.50823639 36.87055455 49.06201172 36.88647461 C48.24241974 36.88632858 47.42282776 36.88618256 46.57839966 36.8860321 C43.8621356 36.88673026 41.14593962 36.89451812 38.4296875 36.90234375 C36.54924558 36.90420827 34.66880317 36.90563202 32.7883606 36.90663147 C27.83338078 36.91045393 22.87843017 36.92028192 17.92346191 36.93133545 C12.86955155 36.94155539 7.81563647 36.94613034 2.76171875 36.95117188 C-7.15886701 36.96190441 -17.07943108 36.9789776 -27 37 Z " fill="#3F5743" transform="translate(33,6)"/>
<path d="M0 0 C4.62453352 2.46060085 7.95708482 5.69186333 9.6875 10.75 C9.749375 11.28625 9.81125 11.8225 9.875 12.375 C7.895 13.365 7.895 13.365 5.875 14.375 C5.23884766 13.45267578 5.23884766 13.45267578 4.58984375 12.51171875 C0.78248256 7.26509135 -1.78002163 4.04473115 -8.125 2.375 C-13.86165274 1.59118012 -18.05747595 2.63853701 -23.125 5.375 C-25.15655057 8.42232585 -25.44060065 9.26919805 -25.5 12.75 C-25.52835938 13.50023437 -25.55671875 14.25046875 -25.5859375 15.0234375 C-24.88936086 18.57715902 -23.79676364 19.86681372 -21.125 22.375 C-16.51019634 24.76322067 -11.64271934 26.55867537 -6.80859375 28.44921875 C0.23644342 31.32754133 7.38258667 34.63896049 11.08081055 41.66625977 C13.1465099 46.84139885 13.19581898 51.00366946 11.875 56.375 C8.61672489 63.02188122 3.30926316 65.96089164 -3.3125 68.6875 C-12.72023374 70.38397658 -22.66951029 70.548808 -30.9375 65.203125 C-33.79407099 62.97829567 -36.09509963 60.87666125 -37.125 57.375 C-37.2027346 55.04296188 -37.21467728 52.70660941 -37.125 50.375 C-35.2421875 50.63671875 -35.2421875 50.63671875 -33.125 51.375 C-32.0703125 53.08203125 -32.0703125 53.08203125 -31.25 55.1875 C-29.26340605 59.44231233 -27.48398446 61.31438916 -23.125 63.375 C-16.3446088 65.52123407 -10.99240187 65.62544799 -4.21875 63.4921875 C-0.97132484 61.7594196 0.46784082 59.45106354 1.75 56.0625 C1.92702585 52.25644416 1.01157182 49.46195327 -1.125 46.375 C-5.67362551 42.06982206 -11.97033742 40.2024325 -17.6875 37.9375 C-25.2227603 34.92776368 -31.59650223 32.3251951 -35.125 24.5625 C-36.93166752 18.69363595 -36.24073221 13.52381759 -33.4375 8.125 C-24.98144468 -1.93084957 -12.4218206 -5.01891741 0 0 Z " fill="#384F3D" transform="translate(163.125,38.625)"/>
<path d="M0 0 C0 2.97 0 5.94 0 9 C0.66 9 1.32 9 2 9 C1.83628906 9.63292969 1.67257813 10.26585937 1.50390625 10.91796875 C0.82495529 15.07062229 0.89706245 19.11255852 0.9375 23.3125 C0.94615569 25.19954377 0.95469605 27.08658806 0.96313477 28.97363281 C0.97245529 30.45120056 0.97245529 30.45120056 0.98196411 31.95861816 C1.06955276 46.72864392 1.07445223 61.48743725 0.5625 76.25 C0.52318359 77.44882813 0.48386719 78.64765625 0.44335938 79.8828125 C0.13219354 87.86780646 0.13219354 87.86780646 -1 89 C-7.52542373 89.23728814 -7.52542373 89.23728814 -10 88 C-10.02316034 77.11684749 -10.04093396 66.23370084 -10.05181217 55.35052872 C-10.0570329 50.29715352 -10.0641159 45.24379518 -10.07543945 40.19042969 C-10.08629704 35.31455062 -10.09228295 30.43868777 -10.09487724 25.56279755 C-10.0967263 23.70165502 -10.10033698 21.84051338 -10.10573006 19.97937775 C-10.11297854 17.3745786 -10.11398932 14.76984665 -10.11352539 12.16503906 C-10.11712067 11.39395813 -10.12071594 10.6228772 -10.12442017 9.82843018 C-10.11034047 2.53298366 -10.11034047 2.53298366 -9 0 C-5.52176885 -1.15941038 -3.54104422 -0.70820884 0 0 Z " fill="#586D61" transform="translate(194,41)"/>
<path d="M0 0 C-0.61875 0.268125 -1.2375 0.53625 -1.875 0.8125 C-4.2995233 1.95556848 -4.2995233 1.95556848 -6 5 C-6.66 5 -7.32 5 -8 5 C-14.52435484 17.67006409 -18.22811297 29.31251094 -14.0390625 43.2890625 C-11.15800693 50.80580147 -6.88842293 55.9179716 0 60 C7.47692689 62.43543054 15.64405215 61.2206635 23 59 C23 59.99 23 60.98 23 62 C14.6985009 66.42883947 6.79872629 68.77050164 -2.625 66.31640625 C-13.56473537 62.29738762 -19.02847984 55.43457481 -24 45 C-26.73456149 34.95243979 -25.53872011 23.59423858 -20.8125 14.375 C-16.8956212 7.81251008 -8.59149754 -2.86383251 0 0 Z " fill="#596E62" transform="translate(278,40)"/>
<path d="M0 0 C-0.33 1.32 -0.66 2.64 -1 4 C-1.66 4 -2.32 4 -3 4 C-3.27585937 4.71414062 -3.55171875 5.42828125 -3.8359375 6.1640625 C-5 9 -5 9 -6.2890625 11.5859375 C-11.28704037 22.02031235 -11.72947087 33.35655919 -8.23828125 44.42578125 C-5.23223332 50.67494713 -0.47471622 55.4124462 5.3125 59.125 C13.38811909 61.0412486 21.1222098 60.42393545 29 58 C28.4375 59.8125 28.4375 59.8125 27 62 C19.75756836 65.76049335 11.55432008 67.46818015 3.546875 65.3515625 C-6.07767974 61.89735114 -11.76229918 56.14387116 -16.87109375 47.4296875 C-21.39032975 37.70316572 -19.74328774 24.69469513 -16.33203125 14.8828125 C-13.68844304 9.16149842 -7.09284071 0 0 0 Z " fill="#596F63" transform="translate(455,41)"/>
<path d="M0 0 C0.66 0.33 1.32 0.66 2 1 C1.505 1.825 1.01 2.65 0.5 3.5 C-1.26515631 7.61869806 -1.73385986 10.59684087 -1 15 C1.80510976 22.01277441 8.48359504 24.15773826 15 27 C17.12207599 27.88206773 19.24699034 28.75734519 21.375 29.625 C27.77558933 32.265452 33.00634393 34.53975889 36.3046875 41.01171875 C37.82996567 45.37332879 37.82996567 49.62667121 36.3046875 53.98828125 C34.09717613 58.31982666 31.30505322 60.84747339 27 63 C24.625 62.75 24.625 62.75 23 62 C23.61875 61.95875 24.2375 61.9175 24.875 61.875 C27.28340065 61.16130988 27.28340065 61.16130988 28.25 58.375 C29.40076834 53.19654248 29.8328844 49.63373478 27.375 44.8125 C22.8592875 39.46494573 17.53446296 37.34553348 11.16796875 34.921875 C3.64280934 31.96309673 -3.40056713 28.89914931 -8 22 C-8.92535042 14.64023617 -8.54705384 8.9364314 -4 3 C-1.75 1.0625 -1.75 1.0625 0 0 Z " fill="#596E63" transform="translate(390,41)"/>
<path d="M0 0 C2.375 1.5 2.375 1.5 4 4 C4.495 7.96 4.495 7.96 5 12 C12.59 12 20.18 12 28 12 C28 10.02 28 8.04 28 6 C30.26470588 1.36764706 30.26470588 1.36764706 33 0 C39.13636364 -0.56818182 39.13636364 -0.56818182 42.375 1.5625 C44.4523486 4.6785229 44.71574109 7.30463414 45 11 C46.175625 11.061875 47.35125 11.12375 48.5625 11.1875 C53.36284998 11.80882189 56.60928767 13.55546684 60 17 C64.57762296 24.38326284 63.33663404 32.48061149 62.24951172 40.78540039 C61.79214653 44.84485209 61.6286134 48.92082553 61.4375 53 C61.37272461 54.30517578 61.37272461 54.30517578 61.30664062 55.63671875 C61.20175782 57.75768219 61.10049925 59.87882433 61 62 C60.67 62 60.34 62 60 62 C59.67 54.08 59.34 46.16 59 38 C30.95 38 2.9 38 -26 38 C-26.33 37.34 -26.66 36.68 -27 36 C2.04 36 31.08 36 61 36 C61.03304021 24.85606822 61.03304021 24.85606822 56 17 C51.73938428 14.71189156 47.78689642 13.58376786 43 13 C43.05800781 13.67546875 43.11601563 14.3509375 43.17578125 15.046875 C43.54328287 22.31290696 43.54328287 22.31290696 40.875 25.6875 C37.34309905 27.29988957 35.65937175 27.21979058 32 26 C29.43383368 22.15075052 29.44902324 19.5650696 29 15 C24.89621612 14.80339286 20.79196562 14.6192724 16.6875 14.4375 C14.93663086 14.35338867 14.93663086 14.35338867 13.15039062 14.26757812 C12.03212891 14.21923828 10.91386719 14.17089844 9.76171875 14.12109375 C8.2142395 14.05039673 8.2142395 14.05039673 6.63549805 13.97827148 C3.88969463 13.86543745 3.88969463 13.86543745 1 15 C0.92652344 14.06027344 0.92652344 14.06027344 0.8515625 13.1015625 C0.77679688 12.28429688 0.70203125 11.46703125 0.625 10.625 C0.55539063 9.81289062 0.48578125 9.00078125 0.4140625 8.1640625 C0.17107412 5.79665809 0.17107412 5.79665809 -2 4 C-4.78237655 4.40528901 -4.78237655 4.40528901 -7 6 C-7.144375 7.155 -7.28875 8.31 -7.4375 9.5 C-7.623125 10.655 -7.80875 11.81 -8 13 C-10.65182391 14.32591195 -12.85273357 14.14781324 -15.8125 14.25 C-19.77901263 14.5777717 -21.6964492 14.81179851 -25.125 16.9375 C-27.35071118 20.57282826 -27.97897152 23.7009313 -28.54296875 27.890625 C-28.76919922 28.93476562 -28.76919922 28.93476562 -29 30 C-29.66 30.33 -30.32 30.66 -31 31 C-31.4533589 24.65297543 -30.68052443 20.28392121 -27 15 C-23.73017412 11.92251682 -21.01172427 11.84299523 -16.6875 11.8125 C-15.12448483 11.86041725 -13.56160485 11.91812945 -12 12 C-11.83564453 10.95199219 -11.83564453 10.95199219 -11.66796875 9.8828125 C-11.50941406 8.97273437 -11.35085937 8.06265625 -11.1875 7.125 C-11.03667969 6.22007813 -10.88585937 5.31515625 -10.73046875 4.3828125 C-9.10977054 -0.90395705 -4.71963807 -0.49680401 0 0 Z M32 5 C31.53737469 6.89425173 31.53737469 6.89425173 31.6015625 9.0625 C31.59769531 9.85914063 31.59382813 10.65578125 31.58984375 11.4765625 C31.60144531 12.30929688 31.61304688 13.14203125 31.625 14 C31.61339844 14.83273438 31.60179687 15.66546875 31.58984375 16.5234375 C31.59371094 17.32007813 31.59757812 18.11671875 31.6015625 18.9375 C31.60494629 19.66839844 31.60833008 20.39929688 31.61181641 21.15234375 C31.86173646 23.41354123 31.86173646 23.41354123 35 25 C37.61915122 24.84298574 37.61915122 24.84298574 40 24 C41.57255046 20.85489907 41.22572668 17.51234555 41.25 14.0625 C41.270625 13.33353516 41.29125 12.60457031 41.3125 11.85351562 C41.36106794 7.69473662 41.36106794 7.69473662 39.671875 3.99609375 C36.42732727 2.06301041 35.0144424 2.99037173 32 5 Z " fill="#48594B" transform="translate(33,6)"/>
<path d="M0 0 C5.74437179 5.17110454 10.24757873 11.6799823 11.34960938 19.47192383 C11.46278764 22.01421547 11.44894987 24.51901383 11.375 27.0625 C11.37371094 27.90876953 11.37242187 28.75503906 11.37109375 29.62695312 C11.26897696 36.98503539 10.42489462 43.65186638 6.0625 49.8125 C5.55847656 50.54082031 5.05445313 51.26914063 4.53515625 52.01953125 C3.11596181 53.85040041 1.7531463 55.48570197 0 57 C-0.66 57 -1.32 57 -2 57 C-2 57.66 -2 58.32 -2 59 C-8.89715536 63.07877462 -8.89715536 63.07877462 -13.5 62.75 C-14.7375 62.37875 -14.7375 62.37875 -16 62 C-14 60 -14 60 -11.6875 58.6875 C-3.84157604 53.7609896 -0.50074118 46.92949409 1.59204102 38.15649414 C3.67422842 27.1499344 2.59028134 16.53093032 -3.25 6.94921875 C-7.57803277 1.01046923 -13.25411693 -0.14860712 -20.19921875 -1.39453125 C-21.79380915 -1.637116 -23.39650757 -1.82570734 -25 -2 C-17.20050008 -7.19966662 -7.34613017 -5.0937095 0 0 Z " fill="#586E61" transform="translate(232,43)"/>
<path d="M0 0 C-0.33 0.825 -0.66 1.65 -1 2.5 C-2.34882135 7.22087474 -3.317079 11.398097 -1.04296875 15.890625 C2.43042413 20.49512276 6.61663578 22.50747572 11.8515625 24.6875 C15.4226488 26.17619106 18.89951128 27.80258304 22.375 29.5 C23.51710937 30.0465625 24.65921875 30.593125 25.8359375 31.15625 C31.01496752 34.17415392 34.06546993 37.34521979 36 43 C36.66 43.99 37.32 44.98 38 46 C37.34 46 36.68 46 36 46 C35.9175 46.86625 35.835 47.7325 35.75 48.625 C34.88167943 52.53244256 33.47211289 54.87350429 31 58 C30.01 58.33 29.02 58.66 28 59 C27.505 59.99 27.505 59.99 27 61 C26.67 60.01 26.34 59.02 26 58 C26.309375 57.443125 26.61875 56.88625 26.9375 56.3125 C28.49964668 52.91253369 28.5230353 49.68398774 28 46 C26.62073227 43.65738392 26.62073227 43.65738392 25 42 C25 41.34 25 40.68 25 40 C21.7827678 38.69970199 18.55112325 37.44103491 15.3125 36.1953125 C13.54157463 35.50544456 11.77074394 34.81533351 10 34.125 C9.11054688 33.78597656 8.22109375 33.44695312 7.3046875 33.09765625 C0.44679068 30.40567586 -4.69909989 27.72183436 -8.2734375 20.921875 C-10.10015212 16.08992019 -9.34933781 12.04801342 -7.75 7.25 C-3.84615385 0 -3.84615385 0 0 0 Z " fill="#596E62" transform="translate(138,42)"/>
<path d="M0 0 C5.52551542 2.82415233 10.12554073 6.76503044 12.8125 12.4375 C13.74021312 15.47350324 13.93895885 18.20568061 13.94189453 21.3737793 C13.94504669 22.35126633 13.94819885 23.32875336 13.95144653 24.33586121 C13.9494223 25.3838942 13.94739807 26.43192719 13.9453125 27.51171875 C13.94674759 29.13108086 13.94674759 29.13108086 13.94821167 30.78315735 C13.94889162 33.06190041 13.9470502 35.34064543 13.94287109 37.61938477 C13.93750467 41.1219513 13.94283035 44.6243905 13.94921875 48.12695312 C13.94855824 50.33854195 13.94727765 52.5501307 13.9453125 54.76171875 C13.94733673 55.81582443 13.94936096 56.86993011 13.95144653 57.95597839 C13.94829437 58.92400894 13.94514221 59.89203949 13.94189453 60.8894043 C13.94109894 61.7455986 13.94030334 62.60179291 13.93948364 63.4839325 C13.8125 65.4375 13.8125 65.4375 12.8125 66.4375 C9.8125 66.5625 9.8125 66.5625 6.8125 66.4375 C5.00783017 64.63283017 5.39757442 61.70647184 5.19140625 59.25 C5.06636719 58.651875 4.94132812 58.05375 4.8125 57.4375 C4.1525 57.1075 3.4925 56.7775 2.8125 56.4375 C3.33518466 53.67473823 3.92119587 51.1114124 4.8125 48.4375 C4.90562712 46.78458141 4.94319176 45.12819484 4.9453125 43.47265625 C4.94660156 42.50779297 4.94789063 41.54292969 4.94921875 40.54882812 C4.94535156 39.54271484 4.94148438 38.53660156 4.9375 37.5 C4.94136719 36.49775391 4.94523437 35.49550781 4.94921875 34.46289062 C4.94792969 33.49673828 4.94664062 32.53058594 4.9453125 31.53515625 C4.94418457 30.65351807 4.94305664 29.77187988 4.94189453 28.86352539 C4.82025796 26.5829544 4.45173813 24.6234151 3.8125 22.4375 C4.4725 22.4375 5.1325 22.4375 5.8125 22.4375 C4.17008817 11.63497039 4.17008817 11.63497039 -1.1875 2.4375 C-2.1775 1.7775 -3.1675 1.1175 -4.1875 0.4375 C-2.1875 -0.5625 -2.1875 -0.5625 0 0 Z " fill="#596E62" transform="translate(355.1875,39.5625)"/>
<path d="M0 0 C9.64951692 -0.49414311 17.4731634 -0.72236322 25.06640625 5.765625 C28.66395177 9.45765151 31.02332174 12.74629565 31.1875 18 C30.50651107 25.2638819 27.29637752 29.54208164 21.74609375 34.171875 C15.81562024 38.11990004 8.91723111 40.40886936 2 42 C2 41.34 2 40.68 2 40 C1.67 39.67 1.34 39.34 1 39 C3.23411852 36.53108558 5.40413571 35.16279268 8.375 33.6875 C13.28681333 31.04760033 16.46888368 28.06223265 19 23 C19.86203627 14.4824841 19.86203627 14.4824841 16.9375 6.75 C11.29630945 3.38929074 6.29462653 3.84384411 0 5 C0 3.35 0 1.7 0 0 Z " fill="#35523F" transform="translate(459,37)"/>
<path d="M0 0 C1.92578255 1.92578255 1.17443944 5.32035408 1.1875 7.875 C1.20167969 9.13054688 1.21585938 10.38609375 1.23046875 11.6796875 C1 15 1 15 -1 18 C-1 13 -1 8 -1 3 C-13.68789409 3.53991039 -22.3386349 7.57579907 -31 17 C-33.84609942 20.96565512 -35.03566353 25.1289626 -36.1875 29.8125 C-36.36474609 30.50537109 -36.54199219 31.19824219 -36.72460938 31.91210938 C-37.15690974 33.60625944 -37.57945894 35.30289268 -38 37 C-37.34 37 -36.68 37 -36 37 C-36 35.68 -36 34.36 -36 33 C-35.01 33 -34.02 33 -33 33 C-33.33 36.63 -33.66 40.26 -34 44 C-40.16040315 45.54010079 -45.66225618 45.16887191 -51.375 42.3125 C-56.98387694 37.3713465 -58.50222985 33.21766719 -59 26 C-54.96678179 24.38671272 -51.95345413 25.54346427 -48 27 C-44.15842235 29.53194891 -42.26786279 32.05730751 -40 36 C-39.8040625 35.04480469 -39.608125 34.08960938 -39.40625 33.10546875 C-36.9566964 22.15142899 -33.02025332 13.26262431 -23.5625 6.5 C-19.2678776 3.92174053 -14.82739392 2.28299762 -10 1 C-9.319375 0.81308594 -8.63875 0.62617187 -7.9375 0.43359375 C-5.2573084 -0.16620719 -2.73463558 -0.12153936 0 0 Z " fill="#495C4E" transform="translate(76,53)"/>
<path d="M0 0 C1.02963867 -0.02416992 1.02963867 -0.02416992 2.08007812 -0.04882812 C7.14622976 -0.05362108 10.65057061 1.0647925 15.1875 3.3125 C13.1875 4.3125 13.1875 4.3125 10.1875 4.3125 C10.97125 5.3025 11.755 6.2925 12.5625 7.3125 C16.51281793 12.85189766 17.52765703 18.50935939 17.1875 25.3125 C16.5275 25.3125 15.8675 25.3125 15.1875 25.3125 C15.08953125 24.51585938 14.9915625 23.71921875 14.890625 22.8984375 C13.71012573 14.3754785 13.71012573 14.3754785 9.1875 7.3125 C4.69167031 4.55760862 0.30664458 4.72657381 -4.8125 5.3125 C-10.5935688 6.73741133 -13.26070281 9.52846071 -16.3125 14.5625 C-17.16673464 16.13465523 -18.00745104 17.7145998 -18.8125 19.3125 C-20.75 19 -20.75 19 -22.8125 18.3125 C-23.8125 15.3125 -23.8125 15.3125 -22.375 12 C-19.74600647 7.67635908 -16.0439805 4.98196915 -11.8125 2.3125 C-11.23113281 1.93351562 -10.64976562 1.55453125 -10.05078125 1.1640625 C-6.74373139 -0.09411703 -3.48828032 -0.01610471 0 0 Z M14.1875 25.3125 C14.8475 26.3025 15.5075 27.2925 16.1875 28.3125 C11.0542995 32.09823537 6.20913761 33.71637697 0.109375 35.37890625 C-5.78398952 37.07718496 -10.64588284 39.68292538 -14.8125 44.3125 C-14.8125 41.3125 -14.8125 41.3125 -13.125 39.3125 C-9.796564 36.43385264 -7.30420405 34.3125 -2.8125 34.3125 C-2.8125 33.6525 -2.8125 32.9925 -2.8125 32.3125 C-10.67529802 34.03607785 -15.72757964 37.14840604 -21.8125 42.3125 C-22.8025 42.9725 -23.7925 43.6325 -24.8125 44.3125 C-21.98898874 38.04403481 -17.19265845 34.60829647 -10.875 32.125 C-5.42626692 30.29865136 0.12916499 29.256553 5.79272461 28.35083008 C9.22559942 27.78563853 11.2408872 27.27690853 14.1875 25.3125 Z " fill="#38503E" transform="translate(343.8125,36.6875)"/>
<path d="M0 0 C0 0.66 0 1.32 0 2 C-1.01320313 2.41958984 -1.01320313 2.41958984 -2.046875 2.84765625 C-9.05622871 5.97384234 -9.05622871 5.97384234 -13.4453125 11.9765625 C-14.97957303 17.57337205 -14.84669732 22.30660535 -12.25 27.5 C-8.43531379 31.73854023 -4.8149421 32.38718271 0.671875 32.9140625 C3.91309172 33.03370473 6.81869118 32.60918679 10 32 C9.67 32.99 9.34 33.98 9 35 C2.68336759 37.84248458 -4.30678792 39.01897622 -11 37 C-15.44853519 34.90428027 -19.58087081 32.41135322 -22 28 C-23.54049043 22.84318099 -23.93336981 17.36087657 -21.9375 12.3125 C-16.28125067 5.56149273 -9.10465557 0 0 0 Z " fill="#596E62" transform="translate(341,69)"/>
<path d="M0 0 C0.66 0 1.32 0 2 0 C1.56330642 5.45866973 0.56112098 8.79970346 -3 13 C-11.50411203 19.69236643 -20.40956322 20.82156116 -31 20 C-37.86692575 18.69395766 -43.17907928 15.84671008 -47.375 10.125 C-48.27594143 7.06179913 -48.12190046 4.16941191 -48 1 C-46.1171875 1.26171875 -46.1171875 1.26171875 -44 2 C-42.9453125 3.70703125 -42.9453125 3.70703125 -42.125 5.8125 C-40.13840605 10.06731233 -38.35898446 11.93938916 -34 14 C-27.81471104 15.75762093 -22.21473633 16.29852932 -15.875 15.19140625 C-14 15 -14 15 -11 16 C-11.495 14.515 -11.495 14.515 -12 13 C-11.34 12.67 -10.68 12.34 -10 12 C-9.505 12.99 -9.505 12.99 -9 14 C-3.42793771 10.59485082 -2.01650695 5.90307063 0 0 Z " fill="#374E3B" transform="translate(174,88)"/>
<path d="M0 0 C3.9860238 2.10373478 6.66315845 4.10526408 9 8 C9.81612059 14.2229195 8.74973084 18.91258428 5 24 C0.36123442 28.54640078 -4.78838764 31.24004316 -11 33 C-13.234375 32.56640625 -13.234375 32.56640625 -15 32 C-13.7315625 31.443125 -13.7315625 31.443125 -12.4375 30.875 C-7.12631088 27.97798775 -3.18514618 24.98798715 -0.0625 19.75 C1.72293952 13.44844877 2.16905764 6.94198307 -1 1 C-0.67 0.67 -0.34 0.34 0 0 Z " fill="#596E63" transform="translate(297,42)"/>
<path d="M0 0 C2.8862606 0.32069562 4.79082091 0.86635781 7.25 2.4375 C9.96462576 6.41248772 10.27910883 10.24799318 10 15 C8.29113396 21.78766371 3.75629793 25.43974637 -2 29 C-7.3 32 -7.3 32 -11 32 C-11 31.34 -11 30.68 -11 30 C-9.55720893 29.06050814 -8.11298085 28.12311903 -6.66015625 27.19921875 C-2.49671083 24.1917417 0.7500102 19.99995922 2 15 C2.41481983 9.66912391 2.57867044 4.83500708 0 0 Z " fill="#596D61" transform="translate(478,43)"/>
<path d="M0 0 C5.43685715 0.25889796 9.163109 2.27937843 13 6 C17.57762296 13.38326284 16.33663404 21.48061149 15.24951172 29.78540039 C14.79214653 33.84485209 14.6286134 37.92082553 14.4375 42 C14.37272461 43.30517578 14.37272461 43.30517578 14.30664062 44.63671875 C14.20175782 46.75768219 14.10049925 48.87882433 14 51 C13.67 51 13.34 51 13 51 C12.67 43.08 12.34 35.16 12 27 C-16.05 27 -44.1 27 -73 27 C-73.33 26.34 -73.66 25.68 -74 25 C-44.96 25 -15.92 25 14 25 C14.03304021 13.85606822 14.03304021 13.85606822 9 6 C5.51202512 4.20728609 5.51202512 4.20728609 2 3 C1.01 2.34 0.02 1.68 -1 1 C-0.67 0.67 -0.34 0.34 0 0 Z " fill="#4F6355" transform="translate(80,17)"/>
<path d="M0 0 C1.19884347 2.39768694 0.97740479 3.66065268 0.8125 6.3125 C0.80745813 9.46366841 0.93607352 10.87214705 2.375 13.75 C7.14164942 17.8356995 12.74439227 20.07873069 18.51953125 22.4375 C33.49940081 28.56345305 33.49940081 28.56345305 37.9375 36.4375 C39.64947341 42.17764614 39.64867632 46.083592 37 51.4375 C36.34692828 52.63253055 35.68485921 53.82289824 35 55 C34.34 54.34 33.68 53.68 33 53 C33.495 52.360625 33.99 51.72125 34.5 51.0625 C36.7827211 46.40194443 36.90251601 42.02042026 35.4140625 37.0390625 C31.68145066 29.19715323 23.00252048 26.96946377 15.4375 24.0625 C9.14271267 21.64028707 2.49032866 19.0519209 -1.18359375 13.07421875 C-2.5548255 9.59037158 -2.23691659 6.7314363 -2 3 C-1.34 2.01 -0.68 1.02 0 0 Z " fill="#42594A" transform="translate(390,45)"/>
<path d="M0 0 C0.66 0 1.32 0 2 0 C1.96519531 0.66386719 1.93039063 1.32773437 1.89453125 2.01171875 C1.73300394 7.28058568 1.722364 10.62981867 5 15 C5 15.66 5 16.32 5 17 C8.060724 18.58784039 11.17596512 19.90350381 14.375 21.1875 C19.13116889 23.17410617 23.84404078 25.22729959 28.5 27.4375 C29.6446875 27.97246094 30.789375 28.50742188 31.96875 29.05859375 C35.48010846 31.30749214 37.04850013 33.33740242 39 37 C39.76423206 40.63981711 39.38814948 44.02962631 38 47.5 C37.67 47.995 37.34 48.49 37 49 C36.01 48.505 36.01 48.505 35 48 C35.5878125 46.4840625 35.5878125 46.4840625 36.1875 44.9375 C37.06137399 41.7800721 36.94329442 40.76507688 36.125 37.375 C31.77487281 30.46597447 24.74158842 28.45611497 17.4375 25.5625 C4.39002626 20.35107344 4.39002626 20.35107344 0.93359375 14.05859375 C-0.77535692 10.01995248 -1.4200538 6.41056487 -1 2 C-0.67 1.34 -0.34 0.68 0 0 Z M33 50 C33.66 50.33 34.32 50.66 35 51 C35 51.66 35 52.32 35 53 C33.68 52.67 32.36 52.34 31 52 C31.66 51.34 32.32 50.68 33 50 Z " fill="#475D4E" transform="translate(128,51)"/>
<path d="M0 0 C1.15671199 3.47013598 0.81546179 3.97559318 -0.4375 7.25 C-3.2145478 15.99066198 -3.49088985 26.39777538 -0.046875 35.0078125 C4.56573028 43.7855315 10.38215152 48.6340226 19.59765625 52.0703125 C21.81363899 52.9278798 23.89510099 53.90136911 26 55 C17.10889787 54.79958581 11.91740176 52.46188993 5.3125 46.625 C-3.0507977 37.13152693 -5.76938603 28.67492615 -5.3671875 15.97265625 C-4.89243751 10.83626542 -3.84978334 3.84978334 0 0 Z " fill="#445B4B" transform="translate(439,53)"/>
<path d="M0 0 C0.66 0 1.32 0 2 0 C1.14102783 7.66381661 -3.20826321 13.79108933 -8.9375 18.875 C-15.12851395 23.1708056 -21.42217306 26.15433441 -29 27 C-30 26 -30 26 -30.3125 23.0625 C-30.25382527 17.40625604 -28.00733677 11.00733677 -24 7 C-23.67 7.66 -23.34 8.32 -23 9 C-23.89254692 11.53411564 -24.99514565 13.94166534 -26.08984375 16.39453125 C-27.0381765 19.10928637 -27.16895041 21.1483218 -27 24 C-17.79766665 21.35830598 -17.79766665 21.35830598 -10 16 C-9.34 16 -8.68 16 -8 16 C-7.73445313 15.46890625 -7.46890625 14.9378125 -7.1953125 14.390625 C-3.59765625 7.1953125 -3.59765625 7.1953125 0 0 Z " fill="#506354" transform="translate(73,71)"/>
<path d="M0 0 C0.66 0 1.32 0 2 0 C2.08636719 0.67546875 2.17273438 1.3509375 2.26171875 2.046875 C2.40222656 2.93890625 2.54273438 3.8309375 2.6875 4.75 C2.87892578 6.07257812 2.87892578 6.07257812 3.07421875 7.421875 C4.35873734 10.99901539 5.77816383 11.957586 9 14 C13.28123713 15.98225232 17.67700838 17.68026402 22.07617188 19.38085938 C28.87037525 22.1423743 35.3630499 25.58465377 39.23950195 32.07543945 C40.17725524 34.44857241 39.8438319 35.63727069 39 38 C37.88842985 35.92506906 37.03628989 34.20564274 36.625 31.875 C36.18880667 29.86503495 36.18880667 29.86503495 34.3671875 29.0859375 C33.58601563 28.72757813 32.80484375 28.36921875 32 28 C25.5 24.75 25.5 24.75 23.64257812 23.8125 C20.6555659 22.30820489 17.66614882 20.84698488 14.625 19.453125 C2.92507859 14.01266154 2.92507859 14.01266154 0 8 C-0.4529869 5.13611615 -0.30754157 2.92164492 0 0 Z " fill="#465B4E" transform="translate(135,48)"/>
<path d="M0 0 C0.99 0.33 1.98 0.66 3 1 C2.33613281 1.53367188 1.67226563 2.06734375 0.98828125 2.6171875 C-6.16177785 8.65037606 -10.60430332 14.20249072 -12.8125 23.375 C-12.9053125 25.169375 -12.9053125 25.169375 -13 27 C-13.05027344 27.9178125 -13.10054687 28.835625 -13.15234375 29.78125 C-13.4639103 39.65167844 -11.13326634 46.68056835 -6 55 C-6.99 55 -7.98 55 -9 55 C-15.36000618 43.37235511 -17.98357121 33.26240645 -14.25 20.3125 C-11.78319125 12.87745188 -8.71763811 8.4244259 -3 3 C-2.401875 2.401875 -1.80375 1.80375 -1.1875 1.1875 C-0.795625 0.795625 -0.40375 0.40375 0 0 Z " fill="#455C4C" transform="translate(267,41)"/>
<path d="M0 0 C3.83672222 1.4561547 4.96544196 3.21358953 6.6875 6.875 C7.10386719 7.73867188 7.52023438 8.60234375 7.94921875 9.4921875 C10.14943391 14.74325862 10.21514803 19.56326285 10.25 25.1875 C10.270625 26.00025391 10.29125 26.81300781 10.3125 27.65039062 C10.36189705 35.41190147 8.82206454 42.4396989 3.8125 48.5625 C3.28269531 49.22378906 2.75289062 49.88507813 2.20703125 50.56640625 C1.80871094 51.03949219 1.41039062 51.51257813 1 52 C0.34 51.67 -0.32 51.34 -1 51 C-0.59007812 50.443125 -0.18015625 49.88625 0.2421875 49.3125 C0.78101563 48.549375 1.31984375 47.78625 1.875 47 C2.67550781 45.88625 2.67550781 45.88625 3.4921875 44.75 C7.092346 38.18390782 7.36384681 31.38457089 7.375 24.0625 C7.39949219 23.22009766 7.42398438 22.37769531 7.44921875 21.50976562 C7.48760646 13.19882718 4.4551728 6.90551784 0 0 Z " fill="#465C4E" transform="translate(235,46)"/>
<path d="M0 0 C2.125 0.9375 2.125 0.9375 4 2 C2.9275 2.226875 1.855 2.45375 0.75 2.6875 C-3.41998137 4.14699348 -4.67299718 5.33049555 -7 9 C-8.87911524 14.63734573 -9.17594111 21.42412899 -6.6875 26.875 C-0.76208708 31.56021022 5.82052859 34.7327985 13 37 C13.33 37.66 13.66 38.32 14 39 C4.96921207 37.84427416 -3.36345951 33.86104753 -9.01171875 26.61328125 C-11.75833466 22.12967504 -11.55452453 17.06773802 -11 12 C-9.06970534 6.43991212 -5.22044175 2.61022088 0 0 Z " fill="#43594A" transform="translate(391,39)"/>
<path d="M0 0 C3.68754757 0.49831724 5.60490662 1.10067643 8 4 C7.01 4 6.02 4 5 4 C6.11854586 7.72614153 6.11854586 7.72614153 9 10 C9.72159424 11.64363134 10.39351421 13.31050386 11 15 C7.49979578 14.6999825 6.05095809 14.04266259 3.3125 11.75 C1.09504262 9.11302365 -0.14949097 7.31698522 -1 4 C-0.625 1.6875 -0.625 1.6875 0 0 Z " fill="#586D62" transform="translate(20,80)"/>
<path d="M0 0 C0.66 0 1.32 0 2 0 C2.77464432 9.02030277 2.77464432 9.02030277 -0.125 12.6875 C-3.65690095 14.29988957 -5.34062825 14.21979058 -9 13 C-11.44897847 9.32653229 -11.31537716 7.33643601 -11 3 C-10.34 2.34 -9.68 1.68 -9 1 C-9 3.97 -9 6.94 -9 10 C-6.36 10.33 -3.72 10.66 -1 11 C-0.67 7.37 -0.34 3.74 0 0 Z " fill="#536458" transform="translate(74,19)"/>
<path d="M0 0 C0.66 0 1.32 0 2 0 C2 0.66 2 1.32 2 2 C3.32 1.67 4.64 1.34 6 1 C4.35 2.98 2.7 4.96 1 7 C0.01 6.67 -0.98 6.34 -2 6 C-3.65 9.3 -5.3 12.6 -7 16 C-7.66 16 -8.32 16 -9 16 C-8.43864007 12.08434122 -7.31225965 9.55237392 -5.0625 6.3125 C-4.53785156 5.54550781 -4.01320313 4.77851562 -3.47265625 3.98828125 C-2 2 -2 2 0 0 Z " fill="#56675C" transform="translate(51,70)"/>
<path d="M0 0 C0.66 0.66 1.32 1.32 2 2 C0.89591797 2.02126953 0.89591797 2.02126953 -0.23046875 2.04296875 C-4.83881144 2.26821139 -8.11107533 2.43761909 -12.0625 4.9375 C-14.3645279 8.57618925 -14.97383188 11.66275114 -15.54296875 15.890625 C-15.76919922 16.93476562 -15.76919922 16.93476562 -16 18 C-16.66 18.33 -17.32 18.66 -18 19 C-18.45290156 12.6593782 -17.6867748 8.27548368 -14 3 C-10.0243475 -0.63488228 -5.17021423 -0.78213457 0 0 Z " fill="#4F6154" transform="translate(20,18)"/>
<path d="M0 0 C0.99 0.495 0.99 0.495 2 1 C2.4140625 3.50390625 2.4140625 3.50390625 2.625 6.5625 C2.69976563 7.57441406 2.77453125 8.58632813 2.8515625 9.62890625 C2.92503906 10.80259766 2.92503906 10.80259766 3 12 C5.31 12 7.62 12 10 12 C10.33 9.03 10.66 6.06 11 3 C11.66 3 12.32 3 13 3 C13.43089173 7.39509566 13.46051828 9.36843207 10.8125 13 C8 15 8 15 5.375 15 C2.80455988 13.91770942 1.67988434 13.20936078 0 11 C-0.29296875 8.30078125 -0.29296875 8.30078125 -0.1875 5.3125 C-0.16042969 4.31863281 -0.13335938 3.32476563 -0.10546875 2.30078125 C-0.07066406 1.54152344 -0.03585938 0.78226563 0 0 Z " fill="#536458" transform="translate(23,18)"/>
<path d="M0 0 C2.44198307 2.25469233 4.08133003 4.60944547 5.8125 7.4375 C9.12342653 12.50272343 12.18537547 15.06179182 18 17 C18 17.66 18 18.32 18 19 C11.08320559 18.08578022 7.19331158 13.3057891 2.5625 8.4375 C0.74550643 5.60299003 0.3095849 3.32803764 0 0 Z " fill="#425A4C" transform="translate(446,82)"/>
<path d="M0 0 C2.61885488 2.36944013 4.41866551 4.83733102 6 8 C5.67 8.99 5.34 9.98 5 11 C2.50638429 9.79618552 0.31856917 8.54571278 -2 7 C-2.1875 3.875 -2.1875 3.875 -2 1 C-1.34 0.67 -0.68 0.34 0 0 Z " fill="#415648" transform="translate(381,89)"/>
<path d="M0 0 C0.99 0.33 1.98 0.66 3 1 C1.43358249 5.30764815 -0.68336156 9.06171464 -3 13 C-4.9375 12.6875 -4.9375 12.6875 -7 12 C-8 9 -8 9 -7.0625 6.8125 C-6.711875 6.214375 -6.36125 5.61625 -6 5 C-5.34 6.32 -4.68 7.64 -4 9 C-0.49822935 5.15096452 -0.49822935 5.15096452 0 0 Z " fill="#2F4836" transform="translate(328,43)"/>
<path d="M0 0 C0.66 0 1.32 0 2 0 C2.90741371 1.53219036 3.75043899 3.10270857 4.5625 4.6875 C7.71042821 10.19442156 11.23959641 12.56782959 17 15 C17 15.66 17 16.32 17 17 C11.12554194 16.20311699 7.97776333 13.21028394 4 9 C0 3.44011142 0 3.44011142 0 0 Z " fill="#425A4D" transform="translate(264,84)"/>
<path d="M0 0 C0.99 0.33 1.98 0.66 3 1 C1.94124926 4.40312738 0.99097846 7.01353231 -1 10 C-3 9 -3 9 -4 8 C-6.05396726 8.40929986 -6.05396726 8.40929986 -8 9 C-6.8553125 7.88625 -6.8553125 7.88625 -5.6875 6.75 C-3.5606298 4.5736677 -1.7440044 2.47832204 0 0 Z M-10 9 C-8 10 -8 10 -8 10 Z " fill="#2F4E39" transform="translate(490,89)"/>
<path d="M0 0 C1.875 0.625 1.875 0.625 4 2 C5.25 5.125 5.25 5.125 6 8 C4.02 8.99 4.02 8.99 2 10 C-1.07692308 5.69230769 -1.07692308 5.69230769 -0.6875 2.1875 C-0.460625 1.465625 -0.23375 0.74375 0 0 Z " fill="#3F5849" transform="translate(167,43)"/>
<path d="M0 0 C0.66 0 1.32 0 2 0 C2 0.66 2 1.32 2 2 C2.928125 2.2165625 2.928125 2.2165625 3.875 2.4375 C6 3 6 3 8 4 C8 5.65 8 7.3 8 9 C6.68 9 5.36 9 4 9 C3.3309224 7.68872739 2.66480194 6.3759455 2 5.0625 C1.62875 4.33160156 1.2575 3.60070313 0.875 2.84765625 C0 1 0 1 0 0 Z " fill="#3D5947" transform="translate(417,43)"/>
<path d="M0 0 C0 0.99 0 1.98 0 3 C-6.435 4.98 -6.435 4.98 -13 7 C-13 6.34 -13 5.68 -13 5 C-13.33 4.67 -13.66 4.34 -14 4 C-12.75 2.5 -12.75 2.5 -11 1 C-9.68 1 -8.36 1 -7 1 C-7 1.66 -7 2.32 -7 3 C-4.69 2.01 -2.38 1.02 0 0 Z " fill="#314F3B" transform="translate(474,72)"/>
<path d="M0 0 C0.33 0 0.66 0 1 0 C0.50726051 6.15924361 -1.00601076 10.21829851 -5.59765625 14.484375 C-7.03447314 15.69361097 -8.51400671 16.85173246 -10 18 C-10 15 -10 15 -8.125 12.8125 C-6 11 -6 11 -4 11 C-2.50859979 7.37802806 -1.2125738 3.72433382 0 0 Z " fill="#3B5343" transform="translate(306,55)"/>
<path d="M0 0 C1.32 0.33 2.64 0.66 4 1 C4.33 3.31 4.66 5.62 5 8 C4.01 8.495 4.01 8.495 3 9 C2.01 8.34 1.02 7.68 0 7 C-0.1875 3.375 -0.1875 3.375 0 0 Z " fill="#405745" transform="translate(126,89)"/>
<path d="M0 0 C0.99 0.33 1.98 0.66 3 1 C2.5206753 5.31392226 1.2542015 7.16569547 -2 10 C-2.6875 7.25 -2.6875 7.25 -3 4 C-1.5625 1.625 -1.5625 1.625 0 0 Z " fill="#35543C" transform="translate(307,89)"/>
<path d="M0 0 C1.79541493 2.53199542 1.41978024 4.7032964 1.21875 7.71875 C0.22875 8.21375 0.22875 8.21375 -0.78125 8.71875 C-0.78125 6.40875 -0.78125 4.09875 -0.78125 1.71875 C-3.75125 1.71875 -6.72125 1.71875 -9.78125 1.71875 C-10.11125 3.03875 -10.44125 4.35875 -10.78125 5.71875 C-10.78125 3.73875 -10.78125 1.75875 -10.78125 -0.28125 C-9.34714632 -0.53079005 -7.90864928 -0.75517642 -6.46875 -0.96875 C-5.66824219 -1.09636719 -4.86773437 -1.22398438 -4.04296875 -1.35546875 C-1.78125 -1.28125 -1.78125 -1.28125 0 0 Z " fill="#425B49" transform="translate(194.78125,39.28125)"/>
<path d="M0 0 C0.66 0 1.32 0 2 0 C1.5685352 5.39331003 0.55317642 8.85462751 -3 13 C-5.75 13.875 -5.75 13.875 -8 14 C-6.8553125 12.7625 -6.8553125 12.7625 -5.6875 11.5 C-2.70294364 7.95583932 -1.43446489 4.37889283 0 0 Z " fill="#475A4D" transform="translate(174,88)"/>
<path d="M0 0 C0.66 0 1.32 0 2 0 C2.04241723 2.33294775 2.04092937 4.66702567 2 7 C1 8 1 8 -1.28515625 8.09765625 C-2.65994141 8.08025391 -2.65994141 8.08025391 -4.0625 8.0625 C-4.98160156 8.05347656 -5.90070313 8.04445313 -6.84765625 8.03515625 C-7.55792969 8.02355469 -8.26820313 8.01195313 -9 8 C-9 7.34 -9 6.68 -9 6 C-6.36 6 -3.72 6 -1 6 C-0.67 4.02 -0.34 2.04 0 0 Z " fill="#3F5543" transform="translate(369,99)"/>
<path d="M0 0 C1 3 1 3 0.22265625 5.04296875 C-0.16019531 5.75066406 -0.54304688 6.45835938 -0.9375 7.1875 C-1.31777344 7.90292969 -1.69804688 8.61835937 -2.08984375 9.35546875 C-2.54037109 10.16951172 -2.54037109 10.16951172 -3 11 C-3.66 11 -4.32 11 -5 11 C-4.46884894 6.48521602 -2.63379708 3.65333143 0 0 Z " fill="#4F6154" transform="translate(47,75)"/>
<path d="M0 0 C0.99 0 1.98 0 3 0 C1.62845496 2.95409701 0.01136276 5.44008376 -2 8 C-2.33 6.35 -2.66 4.7 -3 3 C-2.34 3 -1.68 3 -1 3 C-0.67 2.01 -0.34 1.02 0 0 Z " fill="#586E62" transform="translate(326,45)"/>
<path d="M0 0 C0 0.99 0 1.98 0 3 C-5.17578125 6.22265625 -5.17578125 6.22265625 -7 7 C-7.99 6.67 -8.98 6.34 -10 6 C-6.7 4.02 -3.4 2.04 0 0 Z " fill="#39533F" transform="translate(423,99)"/>
</svg>
